<!--Generator: Adobe Illustrator 16.0.3, SVG Export Plug-In . SVG Version: 6.00 Build 0)--><svg xmlns="http://www.w3.org/2000/svg" width="2752" height="832"><path fill="#292A2A" d="M1453 809h6v6h-6z"/><path fill="#1C1D1D" d="M1459 809l-6 6h6z"/><path fill="#333" d="M1453 809.85h6v1.7h-6z"/><path fill="#292A2A" d="M1292 807h15v5h-15z"/><path fill="#1C1D1D" d="M1307 807l-14.208 5h13.875z"/><path fill="#333" d="M1292.52 807.85h13.97v1.7h-13.97z"/><path fill="#1C1D1D" d="M1300 821h7v5h-7zM1285 821h7v5h-7z"/><path fill="#292A2A" d="M1129.16 809h13.95v10.46h-13.95z"/><path fill="#1C1D1D" d="M1143.105 809v10.462h-13.948z"/><path fill="#333" d="M1129.14 809.85h13.97v1.7h-13.97z"/><path fill="#292A2A" d="M973.521 803.995h8.701l-5 10h6.609l-13.47 13.551 2.777-9.551h-5.216z"/><path fill="#1C1D1D" d="M980.689 807.059l-12.767 10.936h5.216l-2.777 9.551 13.47-13.551h-6.609z"/><path fill="#333" d="M972.83 804.85h8.54v1.7h-8.54z"/><path fill="#292A2A" d="M803.44 808.05h24.98v17.46h-24.98z"/><path fill="#1C1D1D" d="M807.111 825.16l16.952-16.735h4.356v16.786z"/><path fill="#333" d="M803.44 808.9h24.98v1.7h-24.98z"/><path fill="#1C1D1D" d="M653.2 803.74h5.33v4.5h-5.33z"/><path fill="#292A2A" d="M648.313 811.304l-4.411 16.838h24.056l-4.267-16.838z"/><path fill="#1C1D1D" d="M664.085 813.413l-20.183 14.729h24.056z"/><path fill="#333" d="M647.87 812.15h16.22v1.7h-16.22z"/><path fill="#292A2A" d="M482.56 805.44h26.88v13.54h-26.88z"/><path fill="#1C1D1D" d="M509.44 807.656l-26.88 11.332h26.88z"/><path fill="#333" d="M482.56 806.29h26.88v1.7h-26.88z"/><path fill="#1C1D1D" d="M20.879 823.539h6.449v-13.674h-6.449v3.516h3.225v6.642h-3.225z"/><path fill="#292A2A" d="M5.08 805h15.8v22H5.08z"/><path fill="#1C1D1D" d="M20.879 805l-15.8 22h15.8z"/><path fill="#333" d="M5.03 805.85h15.81v1.7H5.03z"/><path fill="#1C1D1D" d="M2745.23 654.49h4.54v8.52h-4.54z"/><path fill="#292A2A" d="M2722.06 654.49h4.54v8.52h-4.54z"/><path fill="#292A2A" d="M2741.854 667.313h3.27v-17.204h-18.526v17.204h3.269z"/><path fill="#1C1D1D" d="M2745.124 651.993l-18.526 15.32h18.526z"/><path fill="#333" d="M2726.55 650.96h18.57v1.7h-18.57z"/><path fill="#292A2A" d="M2564 645h15v4h11v18h-26z"/><path fill="#1C1D1D" d="M2590 651.006L2564 667h26z"/><path fill="#333" d="M2564.03 645.85H2579v1.7h-14.97zM2578.15 649.82H2590v1.7h-11.85z"/><path fill="#333" d="M2576.45 645h1.7v6.52h-1.7z"/><path fill="#292A2A" d="M2427 669v-25h-21v25l10.469-11.094z"/><path fill="#1C1D1D" d="M2426.637 647.104l-10.137 10.741L2427 669v-22.437z"/><path fill="#333" d="M2406 644.85h21v1.7h-21z"/><path fill="#292A2A" d="M2248 644v19.25l.917.75h16.103l3.307 3.766h.673V644z"/><path fill="#1C1D1D" d="M2269 644l-21 20h17.02l3.307 3.766.673-1.266z"/><path fill="#333" d="M2248 644.85h21v1.7h-21z"/><path fill="#1C1D1D" d="M2244.513 664l4.298 5h20.566l-4.357-5z"/><path fill="#292A2A" d="M2091 669h-7v-25h25v6.917z"/><path fill="#1C1D1D" d="M2100.342 644L2084 660.645V644z"/><path fill="#333" d="M2084 644.85h25v1.7h-25z"/><path fill="#292A2A" d="M1788.914 657.076l-13.108-13.108-13.109 13.108z"/><path fill="#1C1D1D" d="M1783.738 651.9l-18.238 17.176h21l.436-13.979z"/><path fill="#333" d="M1785.418 657.045l-9.612-9.611-9.643 9.642h-2.404l12.047-12.047 12.048 12.047z"/><path fill="#292A2A" d="M1922.82 653.59h3.18v7.59h-3.18z"/><path fill="#1C1D1D" d="M1926 654.435l-3.177 6.75H1926z"/><path fill="#292A2A" d="M1946 653.74h3.18v7.59H1946z"/><path fill="#1C1D1D" d="M1946 654.583l3.178 6.75H1946z"/><path fill="#292A2A" d="M1927.24 646h3.76v4.73h-3.76zM1941 646h3.76v4.73H1941zM1928.25 656h14.5v9.89h-14.5z"/><path fill="#1C1D1D" d="M1942.75 658.094l-14.5 7.792h14.5z"/><path fill="#333" d="M1928.25 656.85h14.5v1.7h-14.5z"/><path fill="#292A2A" d="M1932.85 646.85h6.29v6.29h-6.29z"/><path fill="#333" d="M1932.85 647.85h6.29v1.7h-6.29zM1927.24 646.85h3.76v1.7h-3.76zM1941 646.85h3.76v1.7H1941z"/><path fill="#292A2A" d="M1623.578 656.521L1613.545 664h-.555l-10.033-7.479v-1.042L1612.99 648h.555l8.033 5.988.663.493 7.716 5.289v-7.527l-7.716 5.288"/><g fill="#1C1D1D"><path d="M1629.957 656h-5.482l-.01.007 5.492 3.763zM1602.957 656v.521L1612.99 664h.555l10.033-7.479-1.337 1.01 2.224-1.524-.009-.007z"/></g><path fill="#333" d="M1629.957 655l-3.51 2.365-1.982-1.358 5.492-3.764zM1603.921 657.818l-1.472-1.022 10.258-7.647.531-.436.588.436 8.924 6.651 1.277.876-1.472 1.041-1.485-1.048-7.802-5.815z"/><path fill="#1C1D1D" d="M964.5 664h6v3.13h-6zM981.5 664h6v3.13h-6z"/><path fill="#292A2A" d="M988.135 655.787l-3.44-8.788h-17.39l-3.44 8.788z"/><path fill="#1C1D1D" d="M984.695 646.999l-20.57 8.689 23.375.099z"/><path fill="#292A2A" d="M962.5 656h27v8h-27z"/><path fill="#1C1D1D" d="M989.5 656.615l-27.411 7.384H989.5z"/><path fill="#333" d="M966.5 647.85h18.86v1.7H966.5z"/><path fill="#292A2A" d="M652.729 650.744l-10.229 7.865v2.689l10.532-5.021v-5.533z"/><path fill="#1C1D1D" d="M658.75 650.344l10.75 8.265v2.689l-11.14-5.86z"/><path fill="#292A2A" d="M658.5 643l-.004 21.865 3.004 2.604v1.772L656.843 668h-1.952l-4.391 1.241v-1.772l3-2.604V643z"/><path fill="#1C1D1D" d="M658.496 664.865L658.5 643H656v25h.843l4.657 1.241v-1.772z"/><path fill="#333" d="M653.5 643.85h5v1.7h-5z"/><path fill="#292A2A" d="M804.77 657H827v11.11h-22.23z"/><path fill="#1C1D1D" d="M827.01 659.27l-22.237 8.474h22.237z"/><path fill="#333" d="M804.14 657.85h24.19v1.7h-24.19z"/><path fill="#1C1D1D" d="M486 645h12v3h-12z"/><path fill="#292A2A" d="M483 648h26v19h-26z"/><path fill="#1C1D1D" d="M509 650l-7 4.577v8.286h-10.764L491 661.77l-8 5.23h26z"/><path fill="#333" d="M483 648.85h26v1.7h-26z"/><circle fill="#292A2A" cx="336.33" cy="656.56" r="11.56"/><path fill="#1C1D1D" d="M343.012 647.136l-13.405 18.819a11.504 11.504 0 0 0 6.725 2.17c6.386 0 11.563-5.177 11.563-11.563-.001-3.894-1.932-7.332-4.883-9.426z"/><path fill="#333" d="M336.332 647.315c5.907 0 10.728 4.596 11.113 10.403.016-.248.038-.494.038-.746 0-6.157-4.992-11.149-11.151-11.149-6.158 0-11.15 4.992-11.15 11.149 0 .252.021.498.038.746.384-5.807 5.205-10.403 11.112-10.403z"/><circle fill="#292A2A" cx="176" cy="656.56" r="11.56"/><path fill="#1C1D1D" d="M182.68 647.136l-13.405 18.819a11.502 11.502 0 0 0 6.725 2.17c6.386 0 11.563-5.177 11.563-11.563 0-3.894-1.932-7.332-4.883-9.426z"/><path fill="#333" d="M176 647.315c5.906 0 10.728 4.596 11.113 10.403.017-.248.038-.494.038-.746 0-6.157-4.992-11.149-11.15-11.149s-11.15 4.992-11.15 11.149c0 .252.021.498.038.746.383-5.807 5.204-10.403 11.111-10.403z"/><path fill="#292A2A" d="M30 664.003v-20H3v20h9.846L22 668.657l.004-4.654z"/><path fill="#1C1D1D" d="M30 645.985L3 664.003h9.846L22 668.657l.004-4.654H30z"/><path fill="#333" d="M3.33 644.85h26.34v1.7H3.33z"/><path fill="#1C1D1D" d="M2734 482.79h4.81v2.63H2734z"/><path fill="#292A2A" d="M2724.31 485.81h24.19v23h-24.19z"/><path fill="#1C1D1D" d="M2748.5 486.146l-21 22.665h21z"/><path fill="#333" d="M2724.31 486.66h24.19v1.7h-24.19z"/><path fill="#292A2A" d="M2587.996 508.993v-18.822s-4.798.001-6-.001v-6.177h-9v6.081c-1.479.004-8 .006-8 .006l.001 5.913h7.999l.004 7h-8.004l.005 6h22.995z"/><path fill="#1C1D1D" d="M2587.996 490.171l-22.995 18.822h22.995z"/><path fill="#333" d="M2565 490.93h8.85v1.7H2565zM2579.44 490.93h8.85v1.7h-8.85zM2573.85 483.99h1.7v8.63h-1.7z"/><path fill="#333" d="M2579.44 483.99h1.7v8.63h-1.7z"/><path fill="#333" d="M2573.47 484.84h8.63v1.7h-8.63z"/><path fill="#1C1D1D" d="M2424.766 486.987l1.39 4.013h-7.126l-13.494.013 1.391-4.013zM2408.602 497l2.101 11.269h10.453l2.165-11.269z"/><path fill="#333" d="M2406.23 497.85h19.13v1.7h-19.13z"/><path fill="#292A2A" d="M2407.764 491.013h16.598l-1.041 5.987h-14.505zM2243.5 489.81h26v18h-26z"/><path fill="#1C1D1D" d="M2269.5 489.813l-26 18h26z"/><path fill="#333" d="M2244.11 490.66H2269v1.7h-24.89z"/><path fill="#292A2A" d="M2084.61 484.81h23.7V509h-23.7z"/><path fill="#1C1D1D" d="M2108.361 486.711l-23.756 21.854h23.756z"/><path fill="#333" d="M2084.61 485.66h23.79v1.7h-23.79z"/><path fill="#292A2A" d="M1922.83 486.44h26.34v15.37h-26.34z"/><path fill="#1C1D1D" d="M1941.279 486.688l-18.091 15.125h25.687l.283-14.68z"/><path fill="#333" d="M1922.83 487.29h26.34v1.7h-26.34z"/><path fill="#292A2A" d="M1781.283 504l-4.729 4.567-4.731-4.567h-6.323v-20h22v20h-5.346z"/><path fill="#1C1D1D" d="M1787.5 484l-22 20h5.992l5.062 4.567 4.729-4.567h6.217z"/><path fill="#333" d="M1765.5 484.85h22v1.7h-22z"/><path fill="#292A2A" d="M1621 494h7v7h-7z"/><path fill="#1C1D1D" d="M1628 494l-7 7h7z"/><path fill="#292A2A" d="M1605 501h7v7h-7z"/><path fill="#1C1D1D" d="M1612 501l-7 7h7z"/><path fill="#292A2A" d="M1605 484h7v7h-7z"/><path fill="#1C1D1D" d="M1612 484l-7 7h7z"/><path fill="#333" d="M1605 484.85h7v1.7h-7zM1620.63 494.85h7v1.7h-7zM1604.86 501.85h7v1.7h-7z"/><path fill="#292A2A" d="M1458.5 494.054V489l5.182-4.843 4.818 4.897v14.527z"/><path fill="#1C1D1D" d="M1463.682 484.157l-.023.021v14.791l4.841 4.612v-14.527z"/><path fill="#292A2A" d="M1468.926 509.054h-25.319v-24z"/><path fill="#1C1D1D" d="M1456.268 497.054l-4.387 4.157 3.235 2.843h-6.233l-5.276 5h25.319z"/><path fill="#333" d="M1465.872 509.713l-25.312-23.998 1.17-1.234 25.312 23.998z"/><path fill="#292A2A" d="M1287 484v5.063h10.875V506H1308v-22z"/><path fill="#1C1D1D" d="M1308 484l-10.125 12.417V506H1308z"/><path fill="#292A2A" d="M1285 496h11v6.69h-11z"/><path fill="#1C1D1D" d="M1285 491h11v5h-11zM1285 503h11v5h-11z"/><path fill="#333" d="M1287 484.85h21v1.7h-21z"/><path fill="#292A2A" d="M1124 493h15v6h-15z"/><path fill="#1C1D1D" d="M1139 499v-6h-1.875l-5.25 6z"/><path fill="#292A2A" d="M1124 484h21v6h-21z"/><path fill="#1C1D1D" d="M1145 490v-6l-5.25 6z"/><path fill="#292A2A" d="M1124 502h25v6h-25z"/><path fill="#1C1D1D" d="M1124 508h25v-6h-19.75z"/><path fill="#333" d="M1124 484.85h21v1.7h-21z"/><path fill="#292A2A" d="M978 491h10v16.95h-10z"/><path fill="#1C1D1D" d="M988 490.371l-9.583 17.584H988z"/><path fill="#333" d="M978 491.85h10v1.7h-10z"/><path fill="#292A2A" d="M974 508h-10v-24h10v14z"/><path fill="#1C1D1D" d="M974 484l-.583.25-8.875 23.75H964h10z"/><path fill="#333" d="M964 484.85h10v1.7h-10z"/><path fill="#292A2A" d="M804.5 486h22v21h-22z"/><path fill="#1C1D1D" d="M826.5 486l-22 21h22zM643 491h6v6.71h-6zM646.25 498v10H651v-10.125z"/><path fill="#292A2A" d="M663 506.419L660.002 504H649v-19h11.002l2.998-2.058z"/><path fill="#1C1D1D" d="M663 482.942L649 504h11.002l2.998 2.419z"/><path fill="#333" d="M649.5 485.85h11.81v1.7H649.5zM643 491.85h6v1.7h-6z"/><path fill="#292A2A" d="M485.5 486h22v21h-22z"/><path fill="#1C1D1D" d="M507.5 486l-22 21h22z"/><path fill="#292A2A" d="M323 492h26.67v14H323z"/><path fill="#1C1D1D" d="M349.667 492L323 506h27zM323 485h27v7h-27z"/><path fill="#333" d="M323 485.85h27v1.7h-27z"/><path fill="#292A2A" d="M6 490h20.27v9.6H6z"/><path fill="#1C1D1D" d="M6 499.6h20.27v9.6H6z"/><path fill="#333" d="M6 490.85h20.27v1.7H6z"/><path fill="#292A2A" d="M13.47 483.85h5.33v5.92h-5.33zM167 484h20v24h-20z"/><path fill="#1C1D1D" d="M187 484l-20 24h20z"/><path fill="#333" d="M167 484.85h20v1.7h-20z"/><path fill="#1C1D1D" d="M2739.653 345h-7.306l.864 4h5.627z"/><path fill="#292A2A" d="M2727.5 326h17v16h-17z"/><path fill="#1C1D1D" d="M2744.337 327.962L2727.5 342h17z"/><path fill="#333" d="M2727.83 326.84h16.26v1.7h-16.26z"/><path fill="#1C1D1D" d="M2414.18 324.7h4.63v2.07h-4.63zM2413.5 343.21h6v3.48h-6z"/><path fill="#292A2A" d="M2405.487 343.208l4.013-6.246v-9.837h13.977l.023 10.317 3.633 5.766z"/><path fill="#1C1D1D" d="M2409.5 336.962h14l3.633 6.246h-21.646z"/><path fill="#333" d="M2409.5 327.97h13.98v1.7h-13.98z"/><path fill="#292A2A" d="M2242.47 326h27v16h-27z"/><path fill="#1C1D1D" d="M2269.47 328.087l-27 13.915h27z"/><path fill="#333" d="M2242.38 326.85h27.25v1.7h-27.25z"/><path fill="#292A2A" d="M2089.49 336.85h14.55v10.33h-14.55z"/><path fill="#1C1D1D" d="M2104.031 336.854l-15 10.331h15zM2096.927 325.167l-13.646 8.649 5.75 2.832 14.334.206 6.666-3.083z"/><path fill="#333" d="M2085.653 334.984l-1.786-.88 13.069-8.283 12.514 8.218-1.816.841-10.715-7.035z"/><path fill="#1C1D1D" d="M1941.789 338.73v8.113l-5.025-2.85h-1.528l-5.025 2.85v-8.113z"/><path fill="#292A2A" d="M1921.79 328.01h28.42v10.72h-28.42z"/><path fill="#1C1D1D" d="M1950.209 328.014l-28.418 10.716h28.418z"/><path fill="#333" d="M1922.08 328.85h28.13v1.7h-28.13z"/><path fill="#292A2A" d="M1783 323h8v26h-8zM1772 331h11v18h-11zM1762 326h10v23h-10z"/><path fill="#1C1D1D" d="M1791 329.303L1762 349h29z"/><path fill="#333" d="M1762 326.84h10v1.7h-10zM1783 323.85h8v1.7h-8zM1772.71 331.85h9.79v1.7h-9.79z"/><path fill="#292A2A" d="M1621.493 324h-16.513v25.342h23.04V330.34z"/><path fill="#1C1D1D" d="M1621.107 330.912l-16.127 18.43h23.04v-18.43z"/><path fill="#333" d="M1604.98 324.85h16.13v1.7h-16.13z"/><path fill="#292A2A" d="M1443 324h27v24h-27z"/><path fill="#1C1D1D" d="M1470 324l-27 24h27z"/><path fill="#333" d="M1443 324.85h27v1.7h-27z"/><path fill="#292A2A" d="M1289.441 323.254h14.178v19.077l-7.125 6.534-7.053-6.427z"/><path fill="#1C1D1D" d="M1296.525 323.254v25.582l7.094-6.505v-19.077z"/><path fill="#333" d="M1289.44 324.1h14.18v1.7h-14.18z"/><path fill="#292A2A" d="M1123 325h27v22h-27z"/><path fill="#1C1D1D" d="M1136.017 325v22H1123zM1136.5 325h13.5v22h-13.5z"/><path fill="#333" d="M1123 325.85h27v1.7h-27z"/><path fill="#292A2A" d="M964.11 324h23.7v24.19h-23.7z"/><path fill="#1C1D1D" d="M987.861 323.995l-23.756 23.756h23.756z"/><path fill="#333" d="M964.11 324.85h23.79v1.7h-23.79z"/><path fill="#292A2A" d="M823.395 345.173h-15.12c-2.75 0-5-2.25-5-5V333c0-2.75 2.25-5 5-5h15.12c2.75 0 5 2.25 5 5v7.173c0 2.75-2.25 5-5 5z"/><path fill="#1C1D1D" d="M826.689 329.273l-22.23 14.087c.919 1.097 2.281 1.813 3.816 1.813h15.121c2.75 0 5-2.25 5-5V333c-.001-1.485-.67-2.809-1.707-3.727z"/><path fill="#333" d="M823.395 328h-15.12c-2.75 0-5 2.25-5 5v2.55c0-2.75 2.25-5 5-5h15.12c2.75 0 5 2.25 5 5V333c0-2.75-2.25-5-5-5z"/><path fill="#292A2A" d="M642 323h27v27h-27z"/><path fill="#1C1D1D" d="M669 323l-27 27h27z"/><path fill="#333" d="M642 323.85h27v1.7h-27z"/><path fill="#292A2A" d="M500.84 348.984h-9.969c-4.4 0-8-3.601-8-8v-9.97c0-4.399 3.6-8 8-8h9.969c4.399 0 8 3.601 8 8v9.97c0 4.4-3.601 8-8 8z"/><path fill="#1C1D1D" d="M505.938 324.863l-20.272 22.174a7.954 7.954 0 0 0 5.207 1.947h9.969c4.399 0 8-3.601 8-8v-9.97a8.004 8.004 0 0 0-2.904-6.151z"/><path fill="#333" d="M500.577 323.815h-9.443c-4.169 0-7.579 3.409-7.579 7.578v1.75c0-4.168 3.41-7.577 7.579-7.577h9.443c4.168 0 7.578 3.409 7.578 7.577v-1.75c0-4.168-3.41-7.578-7.578-7.578z"/><circle fill="#1C1D1D" cx="495.85" cy="336" r="5.66"/><path fill="#292A2A" d="M323 323h27v27h-27z"/><path fill="#1C1D1D" d="M350 323l-27 27h27z"/><path fill="#333" d="M323 323.85h27v1.7h-27z"/><path fill="#292A2A" d="M163.196 331.008h5v-6h14v5h7v9h-26z"/><path fill="#1C1D1D" d="M182.196 330.486L163 338.616l26.196.392v-9z"/><path fill="#333" d="M168.2 325.85h14v1.7h-14z"/><path fill="#292A2A" d="M3.098 338h5v-6h14v5h7v9h-26z"/><path fill="#1C1D1D" d="M22.098 337.478l-19.196 8.13 26.196.392v-9z"/><path fill="#292A2A" d="M25.932 328.5V326H15.098v6h7v1.375h4V328.5z"/><path fill="#333" d="M8.09 332.85h14v1.7h-14z"/><path fill="#292A2A" d="M2567.74 167.71h16.52v16.52h-16.52z"/><path fill="#1C1D1D" d="M2584.262 169.496l-16.524 14.737h16.524z"/><path fill="#333" d="M2567.74 168.56h16.52v1.7h-16.52z"/><path fill="#292A2A" d="M2403.49 175h25.01v12.13h-25.01z"/><path fill="#1C1D1D" d="M2403.49 166.81h25.01V175h-25.01z"/><path fill="#333" d="M2404.04 167.66h23.93v1.7h-23.93z"/><path fill="#292A2A" d="M2257.893 167.348l4.653-3.352v3.352z"/><path fill="#1C1D1D" d="M2249.72 185.75h3.49v3.01h-3.49zM2257.89 185.75h3.49v3.01h-3.49zM2266.31 173h3.3v6.42h-3.3z"/><path fill="#292A2A" d="M2245.72 167.5h20.58v18.25h-20.58z"/><path fill="#1C1D1D" d="M2266.309 167.496v18.25h-20.584z"/><path fill="#333" d="M2245.72 168.35h20.58v1.7h-20.58z"/><path fill="#292A2A" d="M2089.373 164h13.461l-7.027 6-7.028-6zM2084.529 184.12v4.631h23V170h-23z"/><path fill="#1C1D1D" d="M2107.529 170l-23 18.751h23z"/><path fill="#333" d="M2084.47 170.85h23.06v1.7h-23.06z"/><path fill="#1C1D1D" d="M1946.132 170l-1.302-5.375-16.084 5.375z"/><path fill="#292A2A" d="M1925.996 175.14V170h22.674v17.347h-22.674v-4.285"/><path fill="#1C1D1D" d="M1948.67 170l-22.674 17.347h22.674z"/><path fill="#333" d="M1926 170.85h22.67v1.7H1926z"/><path fill="#292A2A" d="M1923.33 175.61h10.83v6.69h-10.83zM1762.5 163.81h27v24h-27z"/><path fill="#1C1D1D" d="M1789.5 163.813l-27 24h27z"/><path fill="#333" d="M1762.13 164.66h27.85v1.7h-27.85z"/><path fill="#292A2A" d="M1123.49 167.83h25.02v21h-25.02z"/><path fill="#1C1D1D" d="M1148.503 175.893l-17.395 12.619h17.395z"/><path fill="#292A2A" d="M1441.38 165.81h29v8h-29z"/><path fill="#1C1D1D" d="M1469.875 173.813h-29l16.081-8h12.919z"/><path fill="#333" d="M1441.96 166.65h27.85v1.7h-27.85z"/><path fill="#1C1D1D" d="M1443.38 173.81h25v14h-25z"/><path fill="#292A2A" d="M1468.375 174.313l-25-.5v14zM1615.979 189.653l13.5-7.326v-17.514h-27v17.514l13.481 7.316z"/><path fill="#1C1D1D" d="M1615.979 164.813v24.84l13.5-7.326v-17.514z"/><path fill="#333" d="M1601.85 165.66h27.85v1.7h-27.85z"/><path fill="#292A2A" d="M1447.38 182.81h5v5h-5zM1455.38 179.81h8v8h-8zM1127.01 164.26h17.98v3.56h-17.98z"/><path fill="#1C1D1D" d="M1135.47 168.139a5.574 5.574 0 1 1-11.147 0h11.147zM1147.67 168.139a5.573 5.573 0 1 1-11.147 0h11.147z"/><path fill="#292A2A" d="M985.136 169h-19.974v20h23v-20z"/><path fill="#1C1D1D" d="M988.162 170.698l-23 18.302h23z"/><path fill="#333" d="M965.16 169.85h23v1.7h-23zM1124.5 168.99h23v1.7h-23z"/><path fill="#292A2A" d="M811.123 188.821h16.129V164.01h-22.504v18.604z"/><path fill="#1C1D1D" d="M827.252 164.01l-19.316 21.707 3.187 3.104h16.129z"/><path fill="#333" d="M804.75 164.86h22.5v1.7h-22.5z"/><path fill="#292A2A" d="M664.021 188.44v-4.334l-7.982-7.709-8.06 7.709v4.334z"/><path fill="#292A2A" d="M664.021 165.014v4.333l-7.982 7.71-8.06-7.71v-4.333z"/><path fill="#333" d="M655.208 176.928l-1.2-1.205 8.06-8.02 1.2 1.204z"/><path fill="#333" d="M663.262 184.816l-1.2 1.205-8.058-8.02 1.199-1.206z"/><path fill="#1C1D1D" d="M648.66 169.069h14.875v-4.055h-15.25zM648.28 184.76h15.25v3.68h-15.25z"/><path fill="#333" d="M660.72 165.8h2.54v3.27h-2.54zM660.72 184.76h2.54v3.27h-2.54z"/><path fill="#292A2A" d="M482.55 164.76h26.91v23.82h-26.91z"/><path fill="#1C1D1D" d="M499.667 173.167H496v15.415h13.454V164.76h-9.787z"/><path fill="#333" d="M482.86 165.61h26.59v1.7h-26.59z"/><path fill="#292A2A" d="M329 182h14v6h-14z"/><path fill="#1C1D1D" d="M336 182h7v6h-7z"/><path fill="#292A2A" d="M329 164h14v15h-14z"/><path fill="#1C1D1D" d="M336 164h7v15h-7z"/><path fill="#333" d="M329 164.85h14v1.7h-14z"/><path fill="#292A2A" d="M176.053 166.703h-.212L165 176.174V188h22v-11.826l-10.947-9.471zM180 181h-8v-6h8v6z"/><path fill="#1C1D1D" d="M176.053 166.703H176V175h4v6h-4v7h11v-11.826z"/><path fill="#333" d="M186.767 177.084l-11.437-9.879-1.255 1.162 12.692 10.964z"/><path fill="#333" d="M165.145 177.084l11.436-9.879 1.256 1.162-12.692 10.964z"/><path fill="#292A2A" d="M2748.5 10.066v17.176h-25V10.066z"/><path fill="#1C1D1D" d="M2747.75 10.899l-23.833 15.834h24.583V10.899z"/><path fill="#292A2A" d="M2588.5 10v17.176h-25V10z"/><path fill="#1C1D1D" d="M2587.75 10.833l-23.834 15.834h24.584V10.833z"/><path fill="#333" d="M2563.83 10.85h24.34v1.7h-24.34z"/><path fill="#292A2A" d="M28.5 170.066v17.176h-25v-17.176z"/><path fill="#1C1D1D" d="M27.75 170.899L3.917 186.733H28.5v-15.834z"/><path fill="#292A2A" d="M2419.456 27h-6.956v-8.718l-8-7.063V6h23v5.219l-8 7.063v8.515l.001.203z"/><path fill="#1C1D1D" d="M2427.5 11.219V6H2416v21h3.501l-.001-.203v-8.515z"/><path fill="#333" d="M2404.5 6.85h23v1.7h-23z"/><path fill="#292A2A" d="M2256.188 22.474l6.725 4.305-1.872-8.226 5.673-4.822-7.716-.738-2.65-6.87-.348-.902-2.998 7.772-7.716.738 5.673 4.822-1.872 8.226 6.722-4.302z"/><path fill="#1C1D1D" d="M2266.714 13.731l-7.716-.738-2.65-6.87-.348-.902v17.254l.188-.001 6.725 4.305-1.872-8.226z"/><path fill="#292A2A" d="M2087 5h18v18h-18z"/><path fill="#1C1D1D" d="M2105 5l-18 18h16.887l1.113-.814z"/><path fill="#333" d="M2087 5.85h18v1.7h-18z"/><path fill="#1C1D1D" d="M1446 16h21v11h-21z"/><path fill="#292A2A" d="M1453 6h7v7h-7z"/><path fill="#333" d="M1453 6.84h7v1.7h-7z"/><g fill="#333"><path d="M1451.75 17.563v-.717H1446v1.7h7.122zM1461.281 16.846v.717l-1.381.983h7.1v-1.7z"/></g><path fill="#292A2A" d="M1123.955 4v16.741L1136.097 29h.641l12.219-8.259V4h-25.002zm16 12h-7V9h7v7z"/><path fill="#1C1D1D" d="M1136.455 4v5h3.5v7h-3.5v13h.281l12.219-8.259V4z"/><path fill="#333" d="M1123.33 4.85h26.1v1.7h-26.1z"/><path fill="#292A2A" d="M802.546 4.453h26.908v20.38h-8.8l-4.655 4.656-4.653-4.654h-8.8z"/><path fill="#1C1D1D" d="M829.454 6.423l-26.908 18.41 8.8.002L816 29.49l4.654-4.655 8.8-.002z"/><path fill="#333" d="M803.04 5.3h26.1V7h-26.1z"/><path fill="#292A2A" d="M962.296 4.453h26.908v20.38h-8.8l-4.655 4.656-4.653-4.654h-8.8z"/><path fill="#1C1D1D" d="M989.454 6.423l-26.908 18.41 8.8.002L976 29.49l4.654-4.655 8.8-.002z"/><path fill="#333" d="M963.04 5.3h26.1V7h-26.1z"/><path fill="#292A2A" d="M670.146 27.743h-28.292V3.934h23.167l5.125 5.546z"/><path fill="#1C1D1D" d="M667.496 6.724l-25.642 21.019h28.292V9.341z"/><path fill="#333" d="M641.85 4.58H664v1.7h-22.15z"/><path fill="#1C1D1D" d="M483 4.01h27v8h-27z"/><path fill="#292A2A" d="M483 12.01h27v16h-27z"/><path fill="#333" d="M483.67 4.85H510v1.7h-26.33z"/><path fill="#292A2A" d="M324.16 4.18h23.7v24.19h-23.7z"/><path fill="#1C1D1D" d="M347.914 4.178l-23.755 23.756h23.755zM162.486 4.901h26.553v7.412l-13.056 4.526-13.476-4.958z"/><path fill="#333" d="M163.32 5.74h25.25v1.7h-25.25zM324.28 5.08h23.7v1.7h-23.7z"/><path opacity=".7" fill="#292A2A" d="M162.507 11.881l13.476 4.958 13.433-4.958V27.36h-26.909z"/><path fill="#292A2A" d="M5.42 9.78h20.71v11.31H5.42z"/><path fill="#1C1D1D" d="M5.42 21.1h20.71v8.52H5.42zM5.42 2.58h20.71v7.21H5.42z"/><path fill="#333" d="M5.42 3.47h20.24v1.7H5.42zM5.42 21.95h20.24v1.7H5.42z"/><path fill="none" stroke="#FFF" stroke-width="1.7" stroke-miterlimit="10" d="M5.46 2.63h20.63v27H5.46zM5.38 9.79h20.23M5.38 21.11h20.23"/><path d="M14.5 24h2v2h-2z"/><path fill="none" stroke="#FFF" stroke-width="1.7" stroke-miterlimit="10" d="M189.039 11.881l-12.658 4.781h-.839l-12.658-4.781"/><path fill="none" stroke="#FFF" stroke-width="1.7" stroke-miterlimit="10" d="M162.49 4.9h26.91v22.28h-26.91z"/><path d="M174.5 11h2v2h-2z"/><path fill="none" stroke="#FFF" stroke-width="1.7" stroke-miterlimit="10" d="M347.914 14.596v13.397h-23.755v-5.756M324.159 18.269V4.237h23.755v5.73M321.01 14.94l3.27 3.26M327.41 14.95l-3.25 3.25"/><path d="M324.941 18.619l-.72.729-.691-.689.691-.689z"/><path fill="none" stroke="#FFF" stroke-width="1.7" stroke-miterlimit="10" d="M344.71 17.15l3.27-3.27M351.11 17.14l-3.25-3.26"/><path d="M348.633 13.458l-.712-.723-.691.689.691.69z"/><path fill="none" stroke="#FFF" stroke-width="1.7" stroke-miterlimit="10" d="M336.5 8.27v15.77M340.5 11.271h-8v5h8v5h-9M483 12h27"/><path d="M488 2h2v2h-2zM503 2h2v2h-2z"/><path fill="none" stroke="#FFF" stroke-width="1.7" stroke-miterlimit="10" d="M483 4h27v24h-27z"/><path d="M488 17h2v2h-2zM488 21h2v2h-2zM495 21h2v2h-2zM502 21h2v2h-2zM495 17h2v2h-2zM502 17h2v2h-2z"/><path fill="none" stroke="#FFF" stroke-width="1.7" stroke-miterlimit="10" d="M669.704 9.946h-5.706V4.398"/><path fill="none" stroke="#FFF" stroke-width="1.7" stroke-miterlimit="10" d="M641.854 27.949V3.728h22.48l5.812 5.965v18.256h-16.583z"/><path d="M645.5 9h2v2h-2zM648.5 14h2v2h-2zM653.5 17h2v2h-2z"/><path fill="none" stroke="#FFF" stroke-width="1.7" stroke-miterlimit="10" d="M664.97 16.35l-5.27 5.63M659.7 16.35l5.27 5.63M821.25 24.833h8.204V4.453h-26.908v20.38H810.801l.545.002L816 29.49l4.654-4.655zM816 13.15v7.14M816 10.77V9.09M981.25 24.833h8.204V4.453h-26.908v20.38H970.801l.545.002L976 29.49l4.654-4.655z"/><path fill="none" stroke="#FFF" stroke-width="1.7" stroke-miterlimit="10" d="M979.34 16.891h-6.346v-3.966h6.346V8.959h-7.139"/><path d="M974.5 20h2v2h-2z"/><path fill="none" stroke="#FFF" stroke-width="1.7" stroke-miterlimit="10" d="M1136.781 29h-.639L1124 20.741V4h25v16.741z"/><path fill="none" stroke="#FFF" stroke-width="1.7" stroke-miterlimit="10" d="M1133 9h7v7h-7zM1285 10h22M1285 17h22M1285 24h22M1453 6h7v7h-7zM1446 16h21v11h-21z"/><path fill="none" stroke="#FFF" stroke-width="1.7" stroke-miterlimit="10" d="M1461.898 16l-5.873 5.5-5.923-5.5M1619.694 24.701l-8.131-8.131 8.131-8.132M1772.306 24.701l8.132-8.131-8.132-8.132M1946.355 9.366l-13.267 13.268-6.246-6.245M2087 5h18v18h-18zM2104.5 22.71l4.53 4.54"/><path d="M2100 8h2v2h-2z"/><path fill="none" stroke="#FFF" stroke-width="1.7" stroke-miterlimit="10" d="M2419.456 27h-6.956v-8.718l-8-7.063V6h23v5.219l-8 7.063v8.515l.001.203zM2563.5 10v17.176h25V10M2561.67 10h28.59M2570.33 22.16v-6.6M2576 22.16v-6.6M2581.66 22.16v-6.6M2582.102 10l-5.683-5.682-.308-.308-5.99 5.99M2723.536 10.066v17.176h25V10.066M2730.37 22.23v-6.6M2736.04 22.23v-6.6M2741.7 22.23v-6.6"/><path fill="none" stroke="#FFF" stroke-width="1.7" stroke-miterlimit="10" d="M2740.73 6.524l-4.274 4.275-.31.308-4.585-4.587M2736.15 1.88v4.94M2742.54 10.07h7.76M2721.7 10.07h7.81M3.534 170.066v17.176h25v-17.176M10.37 182.23v-6.6M16.03 182.23v-6.6M21.7 182.23v-6.6M16.15 161.88v10.27M21.28 167.02H11.01M22.54 170.07h7.76M1.7 170.07h7.81M175.841 166.703L165 176.174V188h22v-11.826l-10.947-9.471M176 178v-16"/><path fill="none" stroke="#FFF" stroke-width="1.7" stroke-miterlimit="10" d="M172 175h8v6h-8zM2256.264 22.474l6.726 4.305-1.872-8.226 5.673-4.822-7.715-.738-2.65-6.87-.349-.902-2.999 7.772-7.715.738 5.673 4.822-1.872 8.226 6.721-4.302zM329 164h14v15h-14zM329 182h14v6h-14zM482.55 164.76h26.91v23.82h-26.91z"/><path fill="none" stroke="#FFF" stroke-width="1.7" stroke-miterlimit="10" d="M499.667 164.76v8.407h-7.334v-8.407M644.38 165.13h22.92M644.38 188.44h22.92M647.819 165.916v3.549l8.021 7.987"/><path fill="none" stroke="#FFF" stroke-width="1.7" stroke-miterlimit="10" d="M663.861 165.916v3.549l-8.056 8.021M647.819 188.051v-3.55l8.021-7.986"/><path fill="none" stroke="#FFF" stroke-width="1.7" stroke-miterlimit="10" d="M663.861 188.051v-3.55l-8.056-8.021M804.748 182.614h6.375v6.198"/><path fill="none" stroke="#FFF" stroke-width="1.7" stroke-miterlimit="10" d="M811.123 188.821h16.129V164.01h-22.504v18.604zM810 169.87h12M810 175.11h12M1148.507 168.139v20.694h-25.014v-20.427M1144.988 167.83v-3.565h-17.976v3.565M1122.64 168.14l26.71-.01"/><path fill="none" stroke="#FFF" stroke-width="1.7" stroke-miterlimit="10" d="M1128.896 188.512v-11.016h5.584v11.016M1138.86 177.5h4.19v4.19h-4.19zM1135.474 168.139a5.573 5.573 0 1 1-11.147 0M1147.675 168.139a5.574 5.574 0 1 1-11.147 0M1296.59 163.71v25.05M1303.703 168.41h-13.373v7.828h12.524v7.827h-13.381M1468.5 173.813v14h2M1441.5 187.813h2v-14M1447.5 182.81h5v5h-5zM1455.5 179.81h8v8h-8zM1441.5 165.81h29v8h-29zM984.974 169H965v20h23v-20z"/><path fill="none" stroke="#FFF" stroke-width="1.7" stroke-miterlimit="10" d="M972 171v-8h9v8M976.66 173.63V186M980.257 175.69h-6.896v4.125h6.601v4.126h-7.426M1623.367 170.295l-9.41 9.41-4.429-4.43"/><path fill="none" stroke="#FFF" stroke-width="1.7" stroke-miterlimit="10" d="M1616 189.653l13.5-7.326v-17.514h-27v17.514l13.48 7.316zM1762.5 163.81h27v24h-27zM1776.05 167.93v15.77"/><path fill="none" stroke="#FFF" stroke-width="1.7" stroke-miterlimit="10" d="M1780.05 170.929h-8v5h8v5h-9"/><circle cx="1930.87" cy="178.96" r="1.32"/><path fill="none" stroke="#FFF" stroke-width="1.7" stroke-miterlimit="10" d="M1923.25 175.61h10.83v6.69h-10.83z"/><path fill="none" stroke="#FFF" stroke-width="1.7" stroke-miterlimit="10" d="M1925.921 175.141V170h22.674v17.347h-22.674v-4.284M1928.671 170l16.083-5.375 1.303 5.375M2084.5 184.12v4.631h23V170h-23zM2096.04 173.19v12.37"/><path fill="none" stroke="#FFF" stroke-width="1.7" stroke-miterlimit="10" d="M2099.638 175.25h-6.896v4.125h6.601v4.126h-7.426M2095.018 169.833L2088.75 164h14.055l-6.347 5.833M2257.031 167.353l5.559-3.524v3.194M2266.082 173.098h3.297v6.319h-2.957M2244.98 176.26h-2.95M2261.154 185.75v3.007h-3.489v-2.691M2249.498 186.066v2.691h3.488v-2.691M2245.5 167.5h20.58v18.25h-20.58z"/><path d="M2259.99 173h2v2h-2z"/><path fill="none" stroke="#FFF" stroke-width="1.7" stroke-miterlimit="10" d="M2428.507 187.133h-25.014v-20.32h25.014v6.618zM2403.49 175h25.02"/><path d="M2414.56 180.96h2v2h-2zM2418.44 180.96h2v2h-2zM2422.28 180.96h2v2h-2z"/><path fill="none" stroke="#FFF" stroke-width="1.7" stroke-miterlimit="10" d="M2575.63 165.01v-3.76M2575.63 191v-4.03M2586.98 175.99h3.96M2561 175.99h4.02M2567.74 167.71h16.52v16.52h-16.52zM2723 170h21M2723 183h21M2728 176h22M3 338h5v-6h14v5h7v9H3z"/><path fill="none" stroke="#FFF" stroke-width="1.7" stroke-miterlimit="10" d="M15 329v-3h11v8M170.83 342.36l-4.06 5.6M177.49 342.36l-4.06 5.6M183.8 342.36l-4.05 5.6M163 331h5v-6h14v5h7v9h-26z"/><path d="M334 332.27V334h-1v2h1v7h3v-7h1.646s.154-.955.229-2H337v-1.481c0-.221.29-.519.578-.519H339v-2h-2.199c-2.856-.275-2.789 1.939-2.789 2.27H334z"/><path fill="none" stroke="#FFF" stroke-width="1.7" stroke-miterlimit="10" d="M323 323h27v27h-27z"/><circle cx="503.2" cy="328.77" r="1.52"/><path fill="none" stroke="#FFF" stroke-width="1.7" stroke-miterlimit="10" d="M501 349h-10c-4.4 0-8-3.6-8-8v-10c0-4.4 3.6-8 8-8h10c4.4 0 8 3.6 8 8v10c0 4.4-3.6 8-8 8z"/><circle fill="none" stroke="#FFF" stroke-width="1.7" stroke-miterlimit="10" cx="495.86" cy="335.5" r="5.5"/><path d="M662.043 333.207a4.724 4.724 0 0 1-1.354.373 2.38 2.38 0 0 0 1.038-1.307 4.685 4.685 0 0 1-1.503.572 2.362 2.362 0 0 0-2.237-.688c-1.007.217-1.775 1.128-1.838 2.155-.016.24.007.469.056.687a6.705 6.705 0 0 1-4.867-2.466 2.343 2.343 0 0 0-.319 1.188c0 .818.418 1.542 1.05 1.962a2.314 2.314 0 0 1-1.067-.295v.029c0 1.145.814 2.099 1.893 2.317a2.44 2.44 0 0 1-1.067.037 2.37 2.37 0 0 0 2.205 1.641 4.744 4.744 0 0 1-2.933 1.007c-.189 0-.375-.011-.562-.031a6.686 6.686 0 0 0 3.62 1.061c4.34 0 6.714-3.597 6.714-6.714l-.007-.306a4.786 4.786 0 0 0 1.178-1.222z"/><path fill="none" stroke="#FFF" stroke-width="1.7" stroke-miterlimit="10" d="M642 323h27v27h-27z"/><path d="M813.334 341.263v-8.816l7.347 4.408z"/><path fill="none" stroke="#FFF" stroke-width="1.7" stroke-miterlimit="10" d="M823.334 345h-15c-2.75 0-5-2.25-5-5v-7c0-2.75 2.25-5 5-5h15c2.75 0 5 2.25 5 5v7c0 2.75-2.25 5-5 5zM964 324h24v24h-24zM982.42 329.08l-12.84 13.84"/><path fill="none" stroke="#FFF" stroke-width="1.6" stroke-miterlimit="10" d="M970 329h4v4h-4zM979 339h4v4h-4z"/><path fill="none" stroke="#FFF" stroke-width="1.7" stroke-miterlimit="10" d="M1140 325v26M1123 325h13v22h-13zM1136 325h14v22h-14M1289.48 328.57h14.18v12.94h-14.18z"/><path fill="none" stroke="#FFF" stroke-width="1.7" stroke-miterlimit="10" d="M1289.477 328.573v-5.319h14.178v5.319M1289.25 341.873l7.28 6.992 7.343-6.992M1443 324h27v24h-27z"/><path fill="none" stroke="#FFF" stroke-width="1.7" stroke-miterlimit="10" d="M1457 329h9v9h-9zM1443 336h9v9M1461 348v-10M1461 329v-5M1443 332h14"/><path d="M1447 343h2v2h-2zM1456 343h2v2h-2zM1465 343h2v2h-2z"/><path fill="none" stroke="#FFF" stroke-width="1.7" stroke-miterlimit="10" d="M1628.02 330.912h-6.913V324"/><path fill="none" stroke="#FFF" stroke-width="1.7" stroke-miterlimit="10" d="M1621.493 324h-16.513v25.342h23.04V330.34z"/><path fill="none" stroke="#FFF" stroke-width="1.7" stroke-miterlimit="10" d="M1610.5 344v-8h6v8M1610.5 340h6M1621.36 335.17v5.12M1623.92 337.73h-5.13M1762 326h10v23h-10zM1783 323h8v26h-8z"/><path fill="none" stroke="#FFF" stroke-width="1.7" stroke-miterlimit="10" d="M1765 331h4v4h-4zM1785 327h4M1772 349h11M1772 331h11M1775 335h5M1922 328h28v11h-28zM1933 328v11M1939 328v11M1942 339v7.851l-5.208-2.851h-1.584l-5.208 2.851V339M2104 347v-10.537l6-2.878-13.104-8.604-13.646 8.649 5.75 2.833V347zM2083 334v7M2089 336.62h15M2242.5 326h27v16h-27zM2251.129 347.735l4.871-4.871 4.871 4.871"/><path d="M2247.5 323h2v3h-2zM2261.5 323h2v3h-2z"/><path fill="none" stroke="#FFF" stroke-width="1.7" stroke-miterlimit="10" d="M2405.487 343.208l4.013-6.246v-9.837h13.977l.023 10.317 3.633 5.766z"/><path fill="none" stroke="#FFF" stroke-width="1.7" stroke-miterlimit="10" d="M2419.5 343.208v3.48h-6v-3.48M2418.813 327.125V324.5h-4.625v2.625M2590 324v24h-27v-24M2563 328h27M2563 334h27M2563 340h27"/><path fill="none" stroke="#FFF" stroke-miterlimit="10" d="M2568.5 326v4M2572.5 326v4M2576.5 326v4M2584.5 326v4M2580.5 338v4M2572.5 338v4M2584.5 338v4"/><path fill="none" stroke="#FFF" stroke-width="1.7" stroke-miterlimit="10" d="M2739.653 345h-7.306l.864 4h5.627zM2741.5 342h3v-16h-17v16h3z"/><path d="M2722.44 333h2v2h-2zM2747.63 333h2v2h-2zM2735.5 321h2v2h-2z"/><path fill="none" stroke="#FFF" stroke-width="1.7" stroke-miterlimit="10" d="M13 490v-7M19 490v-7M10 483h12M6 499h20M6 490h20v19H6zM167 484h20v24h-20z"/><path fill="none" stroke="#FFF" stroke-width="1.7" stroke-miterlimit="10" d="M171 487h12v8h-12z"/><path d="M171 499h2v2h-2zM171 503h2v2h-2zM176 503h2v2h-2zM181 503h2v2h-2zM176 499h2v2h-2zM181 499h2v2h-2z"/><path fill="none" stroke="#FFF" stroke-width="1.7" stroke-miterlimit="10" d="M323 485h27v21h-27zM323 492h27"/><path d="M326 488h2v2h-2zM331 488h2v2h-2zM336 488h2v2h-2z"/><path fill="none" stroke="#FFF" stroke-width="1.7" stroke-miterlimit="10" d="M496.5 487v-6M496.5 489v15M505.5 496h5M481.5 496h5M500.857 492H492.5v5h8v5h-9M496.5 506v5M491.5 486h-6v6M501.5 486h6v6M491.5 507h-6v-6M501.5 507h6v-6M649 491h-6v7h6M669 488v13M666 491v7M663 506.419L660.002 504H649v-19h11.002l2.998-2.058z"/><path fill="none" stroke="#FFF" stroke-width="1.7" stroke-miterlimit="10" d="M646 498v10h5v-4M815.5 488v-6M824.5 496h5M801.5 496h5M815.5 505v5M810.5 486h-6v6M820.5 486h6v6M810.5 507h-6v-6M820.5 507h6v-6M812.23 493h6.53v6.54h-6.53zM974 508h-10v-24h10v14zM978 491h10v17h-10zM1124 502h25v6h-25zM1124 493h15v6h-15zM1124 484h21v6h-21zM1285 491h11v17h-11zM1285 496h11M1285 503h11"/><path fill="none" stroke="#FFF" stroke-width="1.7" stroke-miterlimit="10" d="M1287 488v-4h21v22h-9M1308 500h-12M1468.818 509H1443.5v-24z"/><path fill="none" stroke="#FFF" stroke-width="1.7" stroke-miterlimit="10" d="M1455.008 504h-6.508v-6.169zM1458.5 494v-5l5.182-4.843L1468.5 489v15M1468.5 489h-10M1605 484h7v7h-7zM1605 501h7v7h-7zM1621 494h7v7h-7zM1612 488h13v6M1621 497h-13v4M1781.283 504l-4.729 4.567-4.731-4.567h-6.323v-20h22v20h-5.346z"/><path d="M1782.5 487h2v2h-2z"/><path fill="none" stroke="#FFF" stroke-width="1.7" stroke-miterlimit="10" d="M1922.828 501.813v-15.368h26.344v15.368M1933.96 500.61l6.21-5.2"/><path d="M1927.5 490.81h2v2h-2zM1935.5 490.81h2v2h-2zM1942.5 490.81h2v2h-2z"/><path fill="none" stroke="#FFF" stroke-width="1.7" stroke-miterlimit="10" d="M1921.5 505.81h29M2087.855 495.472l-3.264 3.263-3.264-3.263"/><path fill="none" stroke="#FFF" stroke-width="1.7" stroke-miterlimit="10" d="M2084.5 498.813v-14h24v24h-24v-6"/><path fill="none" stroke="#FFF" stroke-width="1.7" stroke-miterlimit="10" d="M2095.5 489.813v7.264l6.21 5.2M2243.5 489.81h26v18h-26z"/><path fill="none" stroke="#FFF" stroke-width="1.7" stroke-miterlimit="10" d="M2250.5 489.813v-5h12v5M2262.86 489.86l6.64 5.95M2262.86 507.81l6.64-5.94M2250.32 489.86l-6.64 5.95M2250.32 507.81l-6.64-5.94M2407.53 491.369l3.075 16.631h10.681l3.076-16.631M2424.766 486.987l1.39 4.013h-7.126l-13.494.013 1.391-4.013zM2423.1 497h-14M2588 509v-18.822s-4.797.001-6-.001V484h-9v6.081c-1.479.004-8 .006-8 .006l.002 5.913H2573l.004 7H2565l.006 6H2588z"/><path d="M2735.5 488.81h2v2h-2zM2735.5 503.81h2v2h-2zM2727.5 495.81h2v2h-2zM2742.5 495.81h2v2h-2z"/><path fill="none" stroke="#FFF" stroke-width="1.7" stroke-miterlimit="10" d="M2740.324 492.117l-5.276 5.684 5.276 3.452"/><path fill="none" stroke="#FFF" stroke-width="1.7" stroke-miterlimit="10" d="M2724.31 485.81h24.19v23h-24.19zM2738.813 485.417v-2.625h-4.625v2.625M8 651h17M8 657h17M30 664v-20H3v20h9.846L22 668.654l.004-4.654z"/><circle fill="none" stroke="#FFF" stroke-width="1.7" stroke-miterlimit="10" cx="176" cy="656.56" r="11.56"/><path d="M172.072 656.623v-5.913c0-.412.031-.443.435-.443 1.119-.001 2.238-.009 3.357.003 2.835.027 5.019 1.815 5.614 4.596.382 1.783.252 3.521-.634 5.14-1.028 1.878-2.639 2.881-4.785 2.954-1.2.041-2.402.004-3.603.017-.305.005-.388-.126-.387-.406.006-1.985.003-3.967.003-5.948zm1.174-5.095v10.145c.952 0 1.885.029 2.815-.007 1.441-.056 2.604-.688 3.359-1.915 1.133-1.841 1.184-3.787.289-5.734-.604-1.313-1.655-2.17-3.097-2.355-1.101-.145-2.227-.097-3.366-.134zM343.699 648.705c-.029-.002-.368 0-.397 0-1.056 0-1.803.92-1.803 1.906 0 .885.51 1.635 1.054 2.519.409.717.886 1.635.886 2.963 0 .919-.353 1.985-.817 3.474l-1.071 3.578-3.881-11.546a20.272 20.272 0 0 0 1.228-.103c.58-.067.512-.918-.067-.884 0 0-1.741.136-2.863.136-1.055 0-2.83-.136-2.83-.136-.578-.034-.645.851-.067.884 0 0 .548.068 1.126.103l1.673 4.585-2.349 7.051-3.911-11.635c.647-.033 1.229-.103 1.229-.103.579-.068.51-.919-.069-.885 0 0-1.739.136-2.863.136-.202 0-.417-.004-.669-.012l-.011.005-.824 1.505-.018.035 5.114 14.009c.318.156.884.408 1.661.636l3.218-9.352 3.303 9.045c.02.049.044.094.07.137a11.39 11.39 0 0 0 1.847-.859l3.272-9.463c.614-1.533.817-2.757.817-3.849 0-.376-.07-1.148-.112-1.479-.737-1.306-1.349-1.901-1.876-2.401z"/><circle fill="none" stroke="#FFF" stroke-width="1.7" stroke-miterlimit="10" cx="336.33" cy="656.56" r="11.56"/><path fill="none" stroke="#FFF" stroke-width="1.7" stroke-miterlimit="10" d="M483 648h26v19h-26zM486 648v-3h12v3"/><path fill="none" stroke="#FFF" stroke-width="1.7" stroke-miterlimit="10" d="M491 653h11v10h-11z"/><path d="M504 650h2v2h-2z"/><path fill="none" stroke="#FFF" stroke-width="1.7" stroke-miterlimit="10" d="M653.5 650.152l-11 8.457v2.689l11-5.243M658.499 650.15l11.001 8.459v2.689l-11.14-5.31"/><path fill="none" stroke="#FFF" stroke-width="1.7" stroke-miterlimit="10" d="M658.5 643l-.004 21.865 3.004 2.604v1.772L656.843 668h-1.952l-4.391 1.241v-1.772l3-2.604V643zM831 668h-30M805 668v-11h22v11M810 652v-6M823 652v-6M816 654v-11M962.5 656h27v8h-27zM963.865 655.788l3.44-8.788h17.39l3.44 8.788M970.5 664v3h-6v-3M987.5 664v3h-6v-3"/><path d="M966.5 659h2v2h-2zM983.5 659h2v2h-2z"/><path fill="none" stroke="#FFF" stroke-width="1.7" stroke-miterlimit="10" d="M1136 649v16M1128 657h16M1288.37 656.8h16.26M1450.25 651.05l11.5 11.5M1450.25 662.55l11.5-11.5M1623.621 656.521L1613.588 664h-.555L1603 656.521v-1.042l10.033-7.479h.555l8.034 5.988.663.493 7.715 5.289v-7.527l-7.715 5.288"/><path d="M1608 655h2v2h-2z"/><path fill="none" stroke="#FFF" stroke-width="1.7" stroke-miterlimit="10" d="M1788.914 657l-13.108-13.108L1762.697 657zM1765.5 657v12h21v-12"/><path fill="none" stroke="#FFF" stroke-width="1.7" stroke-miterlimit="10" d="M1769.274 669v-8h5.226v8M1778.5 661h4v4h-4zM1933 647h6v6h-6zM1928 656h15v10h-15zM1931 651h-4v-5h4M1941 651h4v-5h-4M1926 661h-3v-7h3M1946 661h3v-7h-3M2091 669h-7v-25h25v8"/><path fill="none" stroke="#FFF" stroke-width="1.7" stroke-miterlimit="10" d="M2108.27 656.118l-11.939 11.938-5.619-5.618M2248 664v-20h21v25.837"/><path fill="none" stroke="#FFF" stroke-width="1.7" stroke-miterlimit="10" d="M2268.214 668.206L2264.52 664h-20.507l4.298 5H2269M2252 649h13M2252 653h13M2252 657h13M2427 669v-25h-21v25l10.469-11.094zM2564 645h15v4h11v18h-26zM2741.864 667.319h3.27v-17.203h-18.527v17.203h3.269zM2726.607 663.019h-4.541v-8.52h4.541M2745.235 663.019h4.538v-8.52h-4.538"/><path fill="none" stroke="#FFF" stroke-width="1.7" stroke-miterlimit="10" d="M2723.547 654.499v-10.586h24.728v10.586"/><path d="M2731.5 656h2v2h-2zM2738.5 656h2v2h-2z"/><path fill="none" stroke="#FFF" stroke-width="1.7" stroke-miterlimit="10" d="M2721.85 657l8.727 6h4.923M5.03 805h15.8v22H5.03zM20.831 809.86h6.449v13.674h-6.449"/><path fill="none" stroke="#FFF" stroke-width="1.7" stroke-miterlimit="10" d="M20.831 813.377h3.224v6.642h-3.224M184.62 807.38l-17.24 17.24M185 814v16M189 817h-8v5h8v5h-9M168 802v16M172 805h-8v5h8v5h-9M340 808v16M333 808v16M328 812h17M328 820h17M482.56 805.45h26.88v13.54h-26.88zM481.5 822.77h29M494 822.77v7.26M485.25 802.99v2.46M496 802.99v2.46M506.75 802.99v2.46M498 822.77v7.26M648.383 811.303l-4.41 16.839h24.054l-4.266-16.839zM653.26 803.74h5.33v4.5h-5.33zM656 808.67v2.63M803.439 825.513V808.05h24.978v17.463M800.92 825.51h30.03M828.2 812.21l-13.42 13.42M828.42 818.59l-6.93 6.92M973.521 804h8.701l-5 10h6.609l-13.47 13.551 2.777-9.551h-5.216zM1129 809h14v10h-14zM1136 819v10M1133 803v6M1139 803v6M1300 821h7v5h-7zM1285 821h7v5h-7zM1292 821v-14h15v14M1292 812h15M1456 815v14M1463 809v6M1449 809v6M1453 809h6v6h-6zM1467 805v14M1445 805v14"/></svg>