<!--Generator: Adobe Illustrator 16.0.3, SVG Export Plug-In . SVG Version: 6.00 Build 0)--><svg xmlns="http://www.w3.org/2000/svg" width="2752" height="832"><path fill="none" stroke="#000" stroke-width="1.7" stroke-miterlimit="10" d="M5.46 2.63h20.63v27H5.46zM5.38 9.79h20.23M5.38 21.11h20.23"/><path d="M14.5 24h2v2h-2z"/><path fill="none" stroke="#000" stroke-width="1.7" stroke-miterlimit="10" d="M189.039 11.881l-12.658 4.781h-.839l-12.658-4.781"/><path fill="none" stroke="#000" stroke-width="1.7" stroke-miterlimit="10" d="M162.49 4.9h26.91v22.28h-26.91z"/><path d="M174.5 11h2v2h-2z"/><path fill="none" stroke="#000" stroke-width="1.7" stroke-miterlimit="10" d="M347.914 14.596v13.397h-23.755v-5.756M324.159 18.269V4.237h23.755v5.73M321.01 14.94l3.27 3.26M327.41 14.95l-3.25 3.25"/><path d="M324.941 18.619l-.72.729-.691-.689.691-.689z"/><path fill="none" stroke="#000" stroke-width="1.7" stroke-miterlimit="10" d="M344.71 17.15l3.27-3.27M351.11 17.14l-3.25-3.26"/><path d="M348.633 13.458l-.712-.723-.691.689.691.69z"/><path fill="none" stroke="#000" stroke-width="1.7" stroke-miterlimit="10" d="M336.5 8.27v15.77M340.5 11.271h-8v5h8v5h-9M483 12h27"/><path d="M488 2h2v2h-2zM503 2h2v2h-2z"/><path fill="none" stroke="#000" stroke-width="1.7" stroke-miterlimit="10" d="M483 4h27v24h-27z"/><path d="M488 17h2v2h-2zM488 21h2v2h-2zM495 21h2v2h-2zM502 21h2v2h-2zM495 17h2v2h-2zM502 17h2v2h-2z"/><path fill="none" stroke="#000" stroke-width="1.7" stroke-miterlimit="10" d="M669.704 9.946h-5.706V4.398"/><path fill="none" stroke="#000" stroke-width="1.7" stroke-miterlimit="10" d="M641.854 27.949V3.728h22.48l5.812 5.965v18.256h-16.583z"/><path d="M645.5 9h2v2h-2zM648.5 14h2v2h-2zM653.5 17h2v2h-2z"/><path fill="none" stroke="#000" stroke-width="1.7" stroke-miterlimit="10" d="M664.97 16.35l-5.27 5.63M659.7 16.35l5.27 5.63M821.25 24.833h8.204V4.453h-26.908v20.38H810.801l.545.002L816 29.49l4.654-4.655zM816 13.15v7.14M816 10.77V9.09M981.25 24.833h8.204V4.453h-26.908v20.38H970.801l.545.002L976 29.49l4.654-4.655z"/><path fill="none" stroke="#000" stroke-width="1.7" stroke-miterlimit="10" d="M979.34 16.891h-6.346v-3.966h6.346V8.959h-7.139"/><path d="M974.5 20h2v2h-2z"/><path fill="none" stroke="#000" stroke-width="1.7" stroke-miterlimit="10" d="M1136.781 29h-.639L1124 20.741V4h25v16.741z"/><path fill="none" stroke="#000" stroke-width="1.7" stroke-miterlimit="10" d="M1133 9h7v7h-7zM1285 10h22M1285 17h22M1285 24h22M1453 6h7v7h-7zM1446 16h21v11h-21z"/><path fill="none" stroke="#000" stroke-width="1.7" stroke-miterlimit="10" d="M1461.898 16l-5.873 5.5-5.923-5.5M1619.694 24.701l-8.131-8.131 8.131-8.132M1772.306 24.701l8.132-8.131-8.132-8.132M1946.356 9.366l-13.268 13.268-6.246-6.245M2087 5h18v18h-18zM2104.5 22.71l4.53 4.54"/><path d="M2100 8h2v2h-2z"/><path fill="none" stroke="#000" stroke-width="1.7" stroke-miterlimit="10" d="M2419.456 27h-6.956v-8.718l-8-7.063V6h23v5.219l-8 7.063v8.515l.001.203zM2563.5 10v17.176h25V10M2561.67 10h28.59M2570.33 22.16v-6.6M2576 22.16v-6.6M2581.66 22.16v-6.6M2582.102 10l-5.683-5.682-.308-.308-5.99 5.99M2723.536 10.066v17.176h25V10.066M2730.37 22.23v-6.6M2736.04 22.23v-6.6M2741.7 22.23v-6.6"/><path fill="none" stroke="#000" stroke-width="1.7" stroke-miterlimit="10" d="M2740.731 6.524l-4.275 4.275-.309.308-4.587-4.587M2736.15 1.88v4.94M2742.54 10.07h7.76M2721.7 10.07h7.81M3.534 170.066v17.176h25v-17.176M10.37 182.23v-6.6M16.03 182.23v-6.6M21.7 182.23v-6.6M16.15 161.88v10.27M21.28 167.02H11.01M22.54 170.07h7.76M1.7 170.07h7.81M175.841 166.703L165 176.174V188h22v-11.826l-10.947-9.471M176 178v-16"/><path fill="none" stroke="#000" stroke-width="1.7" stroke-miterlimit="10" d="M172 175h8v6h-8zM2256.264 22.474l6.726 4.305-1.872-8.226 5.673-4.822-7.715-.738-2.65-6.87-.349-.902-2.999 7.772-7.715.738 5.673 4.822-1.872 8.226 6.721-4.302zM329 164h14v15h-14zM329 182h14v6h-14zM482.55 164.76h26.91v23.82h-26.91z"/><path fill="none" stroke="#000" stroke-width="1.7" stroke-miterlimit="10" d="M499.667 164.76v8.407h-7.334v-8.407M644.38 165.13h22.92M644.38 188.44h22.92M647.819 165.916v3.549l8.021 7.987"/><path fill="none" stroke="#000" stroke-width="1.7" stroke-miterlimit="10" d="M663.861 165.916v3.549l-8.056 8.021M647.819 188.051v-3.55l8.021-7.986"/><path fill="none" stroke="#000" stroke-width="1.7" stroke-miterlimit="10" d="M663.861 188.051v-3.55l-8.056-8.021M804.748 182.614h6.375v6.198"/><path fill="none" stroke="#000" stroke-width="1.7" stroke-miterlimit="10" d="M811.123 188.821h16.129V164.01h-22.504v18.604zM810 169.87h12M810 175.11h12M1148.507 168.139v20.694h-25.014v-20.427M1144.988 167.83v-3.565h-17.976v3.565M1122.64 168.14l26.71-.01"/><path fill="none" stroke="#000" stroke-width="1.7" stroke-miterlimit="10" d="M1128.896 188.512v-11.016h5.584v11.016M1138.86 177.5h4.19v4.19h-4.19zM1135.474 168.139a5.573 5.573 0 1 1-11.148 0M1147.675 168.139a5.574 5.574 0 1 1-11.148 0M1296.59 163.71v25.05M1303.703 168.41h-13.373v7.828h12.524v7.827h-13.381M1468.5 173.813v14h2M1441.5 187.813h2v-14M1447.5 182.81h5v5h-5zM1455.5 179.81h8v8h-8zM1441.5 165.81h29v8h-29zM984.974 169H965v20h23v-20z"/><path fill="none" stroke="#000" stroke-width="1.7" stroke-miterlimit="10" d="M972 171v-8h9v8M976.66 173.63V186M980.257 175.69h-6.896v4.125h6.601v4.126h-7.426M1623.367 170.295l-9.41 9.41-4.429-4.43"/><path fill="none" stroke="#000" stroke-width="1.7" stroke-miterlimit="10" d="M1616 189.653l13.5-7.326v-17.514h-27v17.514l13.481 7.316zM1762.5 163.81h27v24h-27zM1776.05 167.93v15.77"/><path fill="none" stroke="#000" stroke-width="1.7" stroke-miterlimit="10" d="M1780.05 170.929h-8v5h8v5h-9"/><circle cx="1930.87" cy="178.96" r="1.32"/><path fill="none" stroke="#000" stroke-width="1.7" stroke-miterlimit="10" d="M1923.25 175.61h10.83v6.69h-10.83z"/><path fill="none" stroke="#000" stroke-width="1.7" stroke-miterlimit="10" d="M1925.921 175.141V170h22.674v17.347h-22.674v-4.284M1928.671 170l16.083-5.375 1.303 5.375M2084.5 184.12v4.631h23V170h-23zM2096.04 173.19v12.37"/><path fill="none" stroke="#000" stroke-width="1.7" stroke-miterlimit="10" d="M2099.638 175.25h-6.896v4.125h6.601v4.126h-7.426M2095.018 169.833L2088.75 164h14.055l-6.347 5.833M2257.031 167.353l5.559-3.524v3.194M2266.082 173.098h3.297v6.319h-2.957M2244.98 176.26h-2.95M2261.154 185.75v3.007h-3.489v-2.691M2249.498 186.066v2.691h3.488v-2.691M2245.5 167.5h20.58v18.25h-20.58z"/><path d="M2259.99 173h2v2h-2z"/><path fill="none" stroke="#000" stroke-width="1.7" stroke-miterlimit="10" d="M2428.507 187.133h-25.014v-20.32h25.014v6.618zM2403.49 175h25.02"/><path d="M2414.56 180.96h2v2h-2zM2418.44 180.96h2v2h-2zM2422.28 180.96h2v2h-2z"/><path fill="none" stroke="#000" stroke-width="1.7" stroke-miterlimit="10" d="M2575.63 165.01v-3.76M2575.63 191v-4.03M2586.98 175.99h3.96M2561 175.99h4.02M2567.74 167.71h16.52v16.52h-16.52zM2723 170h21M2723 183h21M2728 176h22M3 338h5v-6h14v5h7v9H3z"/><path fill="none" stroke="#000" stroke-width="1.7" stroke-miterlimit="10" d="M15 329v-3h11v8M170.83 342.36l-4.06 5.6M177.49 342.36l-4.06 5.6M183.8 342.36l-4.05 5.6M163 331h5v-6h14v5h7v9h-26z"/><path d="M334 332.27V334h-1v2h1v7h3v-7h1.646s.154-.955.229-2H337v-1.481c0-.221.29-.519.578-.519H339v-2h-2.199c-2.856-.275-2.789 1.939-2.789 2.27H334zm.012 0"/><path fill="none" stroke="#000" stroke-width="1.7" stroke-miterlimit="10" d="M323 323h27v27h-27z"/><circle cx="503.2" cy="328.77" r="1.52"/><path fill="none" stroke="#000" stroke-width="1.7" stroke-miterlimit="10" d="M501 349h-10c-4.4 0-8-3.6-8-8v-10c0-4.4 3.6-8 8-8h10c4.4 0 8 3.6 8 8v10c0 4.4-3.6 8-8 8z"/><circle fill="none" stroke="#000" stroke-width="1.7" stroke-miterlimit="10" cx="495.86" cy="335.5" r="5.5"/><path d="M662.043 333.207a4.722 4.722 0 0 1-1.355.373c.488-.292.86-.755 1.039-1.307a4.719 4.719 0 0 1-1.503.573 2.366 2.366 0 0 0-2.238-.689c-1.007.217-1.775 1.128-1.838 2.156-.015.24.007.468.056.686a6.705 6.705 0 0 1-4.867-2.466 2.355 2.355 0 0 0 .73 3.15 2.33 2.33 0 0 1-1.067-.295v.029c0 1.145.814 2.099 1.892 2.317a2.441 2.441 0 0 1-1.067.038 2.369 2.369 0 0 0 2.205 1.64 4.743 4.743 0 0 1-2.932 1.007c-.19 0-.376-.011-.562-.031a6.685 6.685 0 0 0 3.62 1.06c4.34 0 6.714-3.596 6.714-6.714l-.007-.305a4.76 4.76 0 0 0 1.18-1.222zm.084 0"/><path fill="none" stroke="#000" stroke-width="1.7" stroke-miterlimit="10" d="M642 323h27v27h-27z"/><path d="M813.334 341.263v-8.816l7.347 4.408z"/><path fill="none" stroke="#000" stroke-width="1.7" stroke-miterlimit="10" d="M823.334 345h-15c-2.75 0-5-2.25-5-5v-7c0-2.75 2.25-5 5-5h15c2.75 0 5 2.25 5 5v7c0 2.75-2.25 5-5 5zM964 324h24v24h-24zM982.42 329.08l-12.84 13.84"/><path fill="none" stroke="#000" stroke-width="1.6" stroke-miterlimit="10" d="M970 329h4v4h-4zM979 339h4v4h-4z"/><path fill="none" stroke="#000" stroke-width="1.7" stroke-miterlimit="10" d="M1140 325v26M1123 325h13v22h-13zM1136 325h14v22h-14M1289.48 328.57h14.18v12.94h-14.18z"/><path fill="none" stroke="#000" stroke-width="1.7" stroke-miterlimit="10" d="M1289.477 328.573v-5.319h14.178v5.319M1289.25 341.873l7.28 6.992 7.343-6.992M1443 324h27v24h-27z"/><path fill="none" stroke="#000" stroke-width="1.7" stroke-miterlimit="10" d="M1457 329h9v9h-9zM1443 336h9v9M1461 348v-10M1461 329v-5M1443 332h14"/><path d="M1447 343h2v2h-2zM1456 343h2v2h-2zM1465 343h2v2h-2z"/><path fill="none" stroke="#000" stroke-width="1.7" stroke-miterlimit="10" d="M1628.019 330.912h-6.912V324"/><path fill="none" stroke="#000" stroke-width="1.7" stroke-miterlimit="10" d="M1621.493 324h-16.512v25.342h23.038V330.34z"/><path fill="none" stroke="#000" stroke-width="1.7" stroke-miterlimit="10" d="M1610.5 344v-8h6v8M1610.5 340h6M1621.36 335.17v5.12M1623.92 337.73h-5.13M1762 326h10v23h-10zM1783 323h8v26h-8z"/><path fill="none" stroke="#000" stroke-width="1.7" stroke-miterlimit="10" d="M1765 331h4v4h-4zM1785 327h4M1772 349h11M1772 331h11M1775 335h5M1922 328h28v11h-28zM1933 328v11M1939 328v11M1942 339v7.851l-5.208-2.851h-1.584l-5.208 2.851V339M2104 347v-10.537l6-2.878-13.104-8.604-13.646 8.649 5.75 2.833V347zM2083 334v7M2089 336.62h15M2242.5 326h27v16h-27zM2251.129 347.735l4.871-4.871 4.871 4.871"/><path d="M2247.5 323h2v3h-2zM2261.5 323h2v3h-2z"/><path fill="none" stroke="#000" stroke-width="1.7" stroke-miterlimit="10" d="M2405.487 343.208l4.013-6.246v-9.837h13.977l.023 10.317 3.633 5.766z"/><path fill="none" stroke="#000" stroke-width="1.7" stroke-miterlimit="10" d="M2419.5 343.208v3.48h-6v-3.48M2418.813 327.125V324.5h-4.625v2.625M2590 324v24h-27v-24M2563 328h27M2563 334h27M2563 340h27"/><path fill="none" stroke="#000" stroke-miterlimit="10" d="M2568.5 326v4M2572.5 326v4M2576.5 326v4M2584.5 326v4M2580.5 338v4M2572.5 338v4M2584.5 338v4"/><path fill="none" stroke="#000" stroke-width="1.7" stroke-miterlimit="10" d="M2739.653 345h-7.306l.864 4h5.627zM2741.5 342h3v-16h-17v16h3z"/><path d="M2722.44 333h2v2h-2zM2747.63 333h2v2h-2zM2735.5 321h2v2h-2z"/><path fill="none" stroke="#000" stroke-width="1.7" stroke-miterlimit="10" d="M13 490v-7M19 490v-7M10 483h12M6 499h20M6 490h20v19H6zM167 484h20v24h-20z"/><path fill="none" stroke="#000" stroke-width="1.7" stroke-miterlimit="10" d="M171 487h12v8h-12z"/><path d="M171 499h2v2h-2zM171 503h2v2h-2zM176 503h2v2h-2zM181 503h2v2h-2zM176 499h2v2h-2zM181 499h2v2h-2z"/><path fill="none" stroke="#000" stroke-width="1.7" stroke-miterlimit="10" d="M323 485h27v21h-27zM323 492h27"/><path d="M326 488h2v2h-2zM331 488h2v2h-2zM336 488h2v2h-2z"/><path fill="none" stroke="#000" stroke-width="1.7" stroke-miterlimit="10" d="M496.5 487v-6M496.5 489v15M505.5 496h5M481.5 496h5M500.857 492H492.5v5h8v5h-9M496.5 506v5M491.5 486h-6v6M501.5 486h6v6M491.5 507h-6v-6M501.5 507h6v-6M649 491h-6v7h6M669 488v13M666 491v7M663 506.419L660.002 504H649v-19h11.002l2.998-2.058z"/><path fill="none" stroke="#000" stroke-width="1.7" stroke-miterlimit="10" d="M646 498v10h5v-4M815.5 488v-6M824.5 496h5M801.5 496h5M815.5 505v5M810.5 486h-6v6M820.5 486h6v6M810.5 507h-6v-6M820.5 507h6v-6M812.23 493h6.54v6.54h-6.54zM974 508h-10v-24h10v14zM978 491h10v17h-10zM1124 502h25v6h-25zM1124 493h15v6h-15zM1124 484h21v6h-21zM1285 491h11v17h-11zM1285 496h11M1285 503h11"/><path fill="none" stroke="#000" stroke-width="1.7" stroke-miterlimit="10" d="M1287 488v-4h21v22h-9M1308 500h-12M1468.818 509H1443.5v-24z"/><path fill="none" stroke="#000" stroke-width="1.7" stroke-miterlimit="10" d="M1455.008 504h-6.508v-6.169zM1458.5 494v-5l5.182-4.896L1468.5 489v15"/><path fill="none" stroke="#000" stroke-width="1.7" stroke-miterlimit="10" d="M1468.5 489l-4.818.001-5.182-.001M1605 484h7v7h-7zM1605 501h7v7h-7zM1621 494h7v7h-7zM1612 488h13v6M1621 497h-13v4M1781.283 504l-4.729 4.567-4.731-4.567h-6.323v-20h22v20h-5.346z"/><path d="M1782.5 487h2v2h-2z"/><path fill="none" stroke="#000" stroke-width="1.7" stroke-miterlimit="10" d="M1922.828 501.813v-15.368h26.344v15.367M1933.96 500.61l6.21-5.2"/><path d="M1927.5 490.81h2v2h-2zM1935.5 490.81h2v2h-2zM1942.5 490.81h2v2h-2z"/><path fill="none" stroke="#000" stroke-width="1.7" stroke-miterlimit="10" d="M1921.5 505.81h29M2087.855 495.472l-3.264 3.263-3.264-3.263"/><path fill="none" stroke="#000" stroke-width="1.7" stroke-miterlimit="10" d="M2084.5 498.813v-14h24v24h-24v-6"/><path fill="none" stroke="#000" stroke-width="1.7" stroke-miterlimit="10" d="M2095.5 489.813v7.264l6.21 5.2M2243.5 489.81h26v18h-26z"/><path fill="none" stroke="#000" stroke-width="1.7" stroke-miterlimit="10" d="M2250.5 489.813v-5h12v5M2262.86 489.86l6.64 5.95M2262.86 507.81l6.64-5.94M2250.32 489.86l-6.64 5.95M2250.32 507.81l-6.64-5.94M2407.53 491.369l3.076 16.631h10.68l3.076-16.631M2424.766 486.987l1.39 4.013h-7.126l-13.494.013 1.391-4.013zM2423.1 497h-14M2588 509v-18.822s-4.797.001-6-.001V484h-9v6.081c-1.478.004-8 .006-8 .006l.002 5.913H2573l.004 7H2565l.006 6H2588z"/><path d="M2735.5 488.81h2v2h-2zM2735.5 503.81h2v2h-2zM2727.5 495.81h2v2h-2zM2742.5 495.81h2v2h-2z"/><path fill="none" stroke="#000" stroke-width="1.7" stroke-miterlimit="10" d="M2740.324 492.117l-5.276 5.684 5.276 3.452"/><path fill="none" stroke="#000" stroke-width="1.7" stroke-miterlimit="10" d="M2724.31 485.81h24.19v23h-24.19zM2738.813 485.417v-2.625h-4.625v2.625M8 651h17M8 657h17M30 664v-20H3v20h9.846L22 668.654l.004-4.654z"/><circle fill="none" stroke="#000" stroke-width="1.7" stroke-miterlimit="10" cx="176" cy="656.56" r="11.56"/><path d="M172.171 656.623v-5.913c0-.412.03-.443.435-.443 1.119-.001 2.238-.009 3.357.003 2.835.027 5.019 1.815 5.613 4.595.382 1.784.253 3.521-.634 5.14-1.028 1.878-2.639 2.881-4.785 2.954-1.2.041-2.402.004-3.603.017-.305.004-.388-.126-.387-.407.008-1.983.004-3.965.004-5.946zm1.175-5.095v10.145c.952 0 1.885.029 2.816-.007 1.441-.056 2.604-.688 3.359-1.915 1.133-1.841 1.184-3.787.289-5.734-.604-1.314-1.655-2.17-3.097-2.356-1.102-.144-2.228-.096-3.367-.133zM343.699 648.705c-.029-.002-.368 0-.397 0-1.056 0-1.803.92-1.803 1.906 0 .885.51 1.635 1.054 2.519.409.717.886 1.635.886 2.963 0 .919-.353 1.985-.817 3.473l-1.071 3.579-3.881-11.546c.646-.034 1.228-.103 1.228-.103.58-.067.512-.918-.067-.884 0 0-1.741.136-2.863.136-1.055 0-2.83-.136-2.83-.136-.578-.034-.645.851-.067.884 0 0 .548.068 1.126.103l1.673 4.585-2.349 7.05-3.911-11.634a21.262 21.262 0 0 0 1.229-.103c.579-.068.51-.919-.069-.885 0 0-1.739.136-2.863.136-.202 0-.417-.004-.669-.012l-.011.005-.824 1.505-.018.035 5.114 14.009c.318.156.884.408 1.661.636l3.218-9.352 3.303 9.045c.02.049.044.094.07.137a11.39 11.39 0 0 0 1.847-.859l3.272-9.463c.614-1.533.817-2.757.817-3.849 0-.376-.044-.977-.087-1.306-.737-1.307-1.374-2.074-1.901-2.574z"/><circle fill="none" stroke="#000" stroke-width="1.7" stroke-miterlimit="10" cx="336.33" cy="656.56" r="11.56"/><path fill="none" stroke="#000" stroke-width="1.7" stroke-miterlimit="10" d="M483 648h26v19h-26zM486 648v-3h12v3"/><path fill="none" stroke="#000" stroke-width="1.7" stroke-miterlimit="10" d="M491 653h11v10h-11z"/><path d="M504 650h2v2h-2z"/><path fill="none" stroke="#000" stroke-width="1.7" stroke-miterlimit="10" d="M653.5 650.152l-11 8.457v2.689l11-5.243M658.499 650.15l11.001 8.459v2.689l-11.14-5.31"/><path fill="none" stroke="#000" stroke-width="1.7" stroke-miterlimit="10" d="M658.5 643l-.004 21.865 3.004 2.604v1.772L656.843 668h-1.952l-4.391 1.241v-1.772l3-2.604V643zM831 668h-30M805 668v-11h22v11M810 652v-6M823 652v-6M816 654v-11M962.5 656h27v8h-27zM963.865 655.788l3.44-8.788h17.39l3.44 8.788M970.5 664v3h-6v-3M987.5 664v3h-6v-3"/><path d="M966.5 659h2v2h-2zM983.5 659h2v2h-2z"/><path fill="none" stroke="#000" stroke-width="1.7" stroke-miterlimit="10" d="M1136 649v16M1128 657h16M1288.37 656.8h16.26M1450.25 651.05l11.5 11.5M1450.25 662.55l11.5-11.5M1623.621 656.521L1613.588 664h-.555L1603 656.521v-1.042l10.033-7.479h.555l8.034 5.988.663.493 7.715 5.289v-7.527l-7.715 5.288"/><path d="M1608 655h2v2h-2z"/><path fill="none" stroke="#000" stroke-width="1.7" stroke-miterlimit="10" d="M1788.914 657l-13.108-13.108L1762.697 657zM1765.5 657v12h21v-12"/><path fill="none" stroke="#000" stroke-width="1.7" stroke-miterlimit="10" d="M1769.274 669v-8h5.226v8M1778.5 661h4v4h-4zM1933 647h6v6h-6zM1928 656h15v10h-15zM1931 651h-4v-5h4M1941 651h4v-5h-4M1926 661h-3v-7h3M1946 661h3v-7h-3M2091 669h-7v-25h25v8"/><path fill="none" stroke="#000" stroke-width="1.7" stroke-miterlimit="10" d="M2108.27 656.118l-11.939 11.938-5.619-5.619M2248 664v-20h21v25.837"/><path fill="none" stroke="#000" stroke-width="1.7" stroke-miterlimit="10" d="M2268.214 668.206L2264.52 664h-20.507l4.298 5H2269M2252 649h13M2252 653h13M2252 657h13M2427 669v-25h-21v25l10.469-11.094zM2564 645h15v4h11v18h-26zM2741.864 667.319h3.27v-17.203h-18.527v17.203h3.269zM2726.607 663.019h-4.54v-8.52h4.54M2745.235 663.019h4.539v-8.52h-4.539"/><path fill="none" stroke="#000" stroke-width="1.7" stroke-miterlimit="10" d="M2723.547 654.499v-10.586h24.729v10.586"/><path d="M2731.5 656h2v2h-2zM2738.5 656h2v2h-2z"/><path fill="none" stroke="#000" stroke-width="1.7" stroke-miterlimit="10" d="M2721.85 657l8.727 6h4.923M5.03 805h15.8v22H5.03zM20.831 809.86h6.449v13.674h-6.449"/><path fill="none" stroke="#000" stroke-width="1.7" stroke-miterlimit="10" d="M20.831 813.377h3.224v6.642h-3.224M184.62 807.38l-17.24 17.24M185 814v16M189 817h-8v5h8v5h-9M168 802v16M172 805h-8v5h8v5h-9M340 808v16M333 808v16M328 812h17M328 820h17M482.56 805.45h26.88v13.54h-26.88zM481.5 822.77h29M494 822.77v7.26M485.25 802.99v2.46M496 802.99v2.46M506.75 802.99v2.46M498 822.77v7.26M648.383 811.303l-4.41 16.839h24.054l-4.266-16.839zM653.26 803.74h5.33v4.5h-5.33zM656 808.67v2.63M803.439 825.513V808.05h24.978v17.463M800.92 825.51h30.03M828.2 812.21l-13.42 13.42M828.42 818.59l-6.93 6.92M973.521 804h8.701l-5 10h6.609l-13.47 13.551 2.777-9.551h-5.216zM1129 809h14v10h-14zM1136 819v10M1133 803v6M1139 803v6M1300 821h7v5h-7zM1285 821h7v5h-7zM1292 821v-14h15v14M1292 812h15M1456 815v14M1463 809v6M1449 809v6M1453 809h6v6h-6zM1467 805v14M1445 805v14"/></svg>